<?xml version="1.0" encoding="UTF-8"?>
<svg width="72px" height="72px" viewBox="0 0 72 72" version="1.1" xmlns="http://www.w3.org/2000/svg" xmlns:xlink="http://www.w3.org/1999/xlink">
    <title>icon_面积</title>
    <g id="icon_面积" stroke="none" stroke-width="1" fill="none" fill-rule="evenodd">
        <g>
            <circle id="椭圆形" stroke-opacity="0.5" stroke="#FFFFFF" stroke-width="3" fill-opacity="0.2" fill="#55595A" cx="36" cy="36" r="34.5"></circle>
            <g id="面积" transform="translate(19.227273, 19.227273)" fill="#FFFFFF" fill-rule="nonzero">
                <path d="M32.4142627,7.57732636 C32.9784308,7.57732636 33.4349192,7.12082069 33.4349192,6.55671165 L33.4349192,1.16338927 C33.4349192,0.5992443 32.9784308,0.142738603 32.4142627,0.142738603 L27.0196771,0.142738603 C26.4565153,0.142738603 25.9990565,0.599244265 25.9990565,1.16338927 L25.9990565,2.83986699 L22.6857864,2.83986699 C22.5826353,2.8240176 22.4775794,2.8240176 22.3744643,2.83986699 L8.20858679,2.83986699 L8.20858679,1.16338927 C8.20858679,0.5992443 7.75105605,0.142738603 7.18789433,0.142738603 L1.79334464,0.142738603 C1.22917653,0.142738603 0.772652179,0.599244265 0.772652179,1.16338927 L0.772652179,6.55671162 C0.772652179,7.12085659 1.22917656,7.57732632 1.79334464,7.57732632 L3.46992699,7.57732632 L3.46992699,25.3690438 L1.79334464,25.3690438 C1.22917653,25.3690438 0.772652179,25.8255135 0.772652179,26.3896585 L0.772652179,31.7829808 C0.772652179,32.3471258 1.22917656,32.8035955 1.79334464,32.8035955 L7.18789433,32.8035955 C7.75105608,32.8035955 8.20858679,32.3471258 8.20858679,31.7829808 L8.20858679,30.1064671 L25.9990205,30.1064671 L25.9990205,31.7829808 C25.9990205,32.3471258 26.4565153,32.8035955 27.0196411,32.8035955 L32.4142267,32.8035955 C32.9783949,32.8035955 33.4349192,32.3471258 33.4349192,31.7829808 L33.4349192,26.3896944 C33.4349192,25.8255495 32.9783948,25.3690797 32.4142267,25.3690797 L30.7376444,25.3690797 L30.7376444,11.0523329 C30.7394055,11.0177589 30.7394055,10.9831131 30.7376444,10.9485392 L30.7376444,7.57732636 L32.4142627,7.57732636 Z M28.0404055,2.18403993 L31.3935343,2.18403993 L31.3935343,5.53606099 L28.0404055,5.53606099 L28.0404055,2.18403993 Z M5.51131195,14.7519265 C5.57129771,14.7132195 5.62822846,14.6678277 5.68077441,14.6152839 L15.4152529,4.88116833 L20.0540322,4.88116833 L5.51131195,19.4233287 L5.51131195,14.7519265 Z M2.8140371,2.18403993 L6.16716591,2.18403993 L6.16716591,3.82166688 C6.16666273,3.83456922 6.16619551,3.84747157 6.16619551,3.86051766 C6.16619551,3.87356375 6.16669869,3.8864661 6.16716591,3.89936844 L6.16716591,5.53606095 L2.8140371,5.53606095 L2.8140371,2.18403993 Z M7.18789433,7.57732636 C7.75105608,7.57732636 8.20858679,7.12082069 8.20858679,6.55671165 L8.20858679,4.88116836 L12.5286042,4.88116836 L5.51131195,11.898173 L5.51131195,7.57732636 L7.18789433,7.57732636 Z M5.51131195,22.3098232 L22.9407169,4.88116833 L25.9990565,4.88116833 L25.9990565,6.13172503 L6.76094949,25.3690438 L5.51131195,25.3690438 L5.51131195,22.3098232 Z M2.8140371,30.7623661 L2.8140371,27.4103451 L6.16716591,27.4103451 L6.16716591,29.0470016 C6.16666273,29.059904 6.16619551,29.0728423 6.16619551,29.0858524 C6.16619551,29.0988626 6.16669869,29.1118009 6.16716591,29.1247032 L6.16716591,30.7623302 L2.8140371,30.7623302 L2.8140371,30.7623661 Z M28.6962594,18.0472707 L18.9225332,27.8205605 C18.8484586,27.8946321 18.7882571,27.9772215 18.7417134,28.0652018 L14.096213,28.0652018 L28.6962594,13.4657536 L28.6962594,18.0472707 Z M31.3935343,30.7623661 L28.0404055,30.7623661 L28.0404055,27.4103451 L31.3935343,27.4103451 L31.3935343,30.7623661 Z M27.0196771,25.3690438 C26.4565153,25.3690438 25.9990565,25.8255135 25.9990565,26.3896585 L25.9990565,28.0651659 L21.5645666,28.0651659 L28.6962954,20.9337652 L28.6962954,25.3690078 L27.0196771,25.3690078 L27.0196771,25.3690438 Z M28.6962594,10.5792231 L11.2095643,28.0652018 L8.20858679,28.0652018 L8.20858679,26.8080322 L27.4400806,7.57736228 L28.6962594,7.57736228 L28.6962594,10.5792231 Z" id="形状"></path>
            </g>
        </g>
    </g>
</svg>