<?xml version="1.0" encoding="UTF-8"?>
<svg width="48px" height="48px" viewBox="0 0 48 48" version="1.1" xmlns="http://www.w3.org/2000/svg" xmlns:xlink="http://www.w3.org/1999/xlink">
    <title>icon_城市更新单元</title>
    <g id="icon_城市更新单元" stroke="none" stroke-width="1" fill="none" fill-rule="evenodd">
        <g transform="translate(4.500000, 8.000000)" fill-rule="nonzero">
            <circle id="椭圆形" fill="#FFCF41" cx="29.5" cy="20.5" r="10.5"></circle>
            <g id="编组" transform="translate(0.012475, 0.534930)" fill="#FFFFFF">
                <path d="M9.08083832,9.58083832 L2.6936128,9.58083832 C2.12824665,9.58083832 1.6627904,10.0086035 1.60324231,10.5581356 L1.5968064,10.6776447 L1.5968064,29.8393214 C1.5968064,30.4046875 2.02457157,30.8701438 2.57410366,30.9296919 L2.6936128,30.9361278 L9.08083832,30.9361278 C9.64620447,30.9361278 10.1116607,30.5083626 10.1712088,29.9588305 L10.1776447,29.8393214 L10.1776447,10.6776447 C10.1776447,10.1122786 9.74987956,9.64682233 9.20034746,9.58727423 L9.08083832,9.58083832 Z M7.98403196,11.7744511 L7.98403196,28.742515 L3.79041916,28.742515 L3.79041916,11.7744511 L7.98403196,11.7744511 Z" id="形状"></path>
                <path d="M21.8552894,1.42108547e-14 L9.08083832,1.42108547e-14 C8.5154722,1.42108547e-14 8.05001596,0.42776517 7.99046787,0.977297259 L7.98403196,1.0968064 L7.98403196,29.8393214 C7.98403196,30.4046875 8.41179712,30.8701438 8.96132919,30.9296919 L9.08083832,30.9361278 L21.8552894,30.9361278 C22.4206556,30.9361278 22.8861118,30.5083626 22.9456599,29.9588305 L22.9520958,29.8393214 L22.9520958,1.0968064 C22.9520958,0.531440252 22.5243307,0.0659840051 21.9747986,0.00643591068 L21.8552894,1.42108547e-14 Z M20.758483,2.1936128 L20.758483,28.742515 L10.1776447,28.742515 L10.1776447,2.1936128 L20.758483,2.1936128 Z" id="形状"></path>
                <path d="M28.242515,15.9680639 L21.8552894,15.9680639 C21.5643983,15.9680639 21.2854213,16.0836199 21.0797302,16.289311 C20.9034235,16.4656177 20.7933386,16.6957671 20.7654838,16.941111 L20.758483,17.0648703 L20.758483,29.8393214 C20.758483,30.4046875 21.1862482,30.8701438 21.7357803,30.9296919 L21.8552894,30.9361278 L28.242515,30.9361278 C28.8078811,30.9361278 29.2733374,30.5083626 29.3328855,29.9588305 L29.3393214,29.8393214 L29.3393214,17.0648703 C29.3393214,16.7739791 29.2237653,16.4950021 29.0180742,16.289311 C28.8417676,16.1130044 28.6116182,16.0029194 28.3662742,15.9750646 L28.242515,15.9680639 Z M27.1457086,18.1616766 L27.1457086,28.742515 L22.9520958,28.742515 L22.9520958,18.1616766 L27.1457086,18.1616766 Z" id="形状"></path>
                <path d="M1.0968064,28.742515 L29.8393214,28.742515 C30.4450708,28.742515 30.9361278,29.2335719 30.9361278,29.8393214 C30.9361278,30.4450708 30.4450708,30.9361278 29.8393214,30.9361278 L1.0968064,30.9361278 C0.491056952,30.9361278 0,30.4450708 0,29.8393214 C0,29.2335719 0.491056952,28.742515 1.0968064,28.742515 Z" id="路径"></path>
            </g>
        </g>
    </g>
</svg>