<?xml version="1.0" encoding="UTF-8"?>
<svg width="40px" height="40px" viewBox="0 0 40 40" version="1.1" xmlns="http://www.w3.org/2000/svg" xmlns:xlink="http://www.w3.org/1999/xlink">
    <title>icon_搜房</title>
    <defs>
        <filter x="-33.3%" y="-33.3%" width="166.7%" height="166.7%" filterUnits="objectBoundingBox" id="filter-1">
            <feOffset dx="0" dy="2" in="SourceAlpha" result="shadowOffsetOuter1"></feOffset>
            <feGaussianBlur stdDeviation="2" in="shadowOffsetOuter1" result="shadowBlurOuter1"></feGaussianBlur>
            <feColorMatrix values="0 0 0 0 0   0 0 0 0 0   0 0 0 0 0  0 0 0 0.5 0" type="matrix" in="shadowBlurOuter1" result="shadowMatrixOuter1"></feColorMatrix>
            <feMerge>
                <feMergeNode in="shadowMatrixOuter1"></feMergeNode>
                <feMergeNode in="SourceGraphic"></feMergeNode>
            </feMerge>
        </filter>
    </defs>
    <g id="icon_搜房" stroke="none" stroke-width="1" fill="none" fill-rule="evenodd">
        <g filter="url(#filter-1)" transform="translate(2.000000, 2.000000)" fill-rule="nonzero" id="形状">
            <path d="M28.4470322,35.8325215 L9.71556375,35.8325215 C7.10915272,35.8325215 4.98860981,33.7106407 4.98860981,31.1022771 L4.98860981,14.366133 C4.98860981,13.8437082 5.41217602,13.4201782 5.93456467,13.4201782 C6.45695331,13.4201782 6.88051952,13.8437444 6.88051952,14.366133 L6.88051952,31.1022771 C6.88051952,32.6671651 8.15208593,33.9405756 9.7155999,33.9405756 L28.4470683,33.9405756 C30.0105823,33.9405756 31.2821487,32.6643809 31.2821487,31.0958046 L31.2821487,23.7813508 C31.2821487,23.258926 31.7057149,22.8353959 32.2281035,22.8353959 C32.7504922,22.8353959 33.1740584,23.2589622 33.1740584,23.7813508 L33.1740584,31.0958408 C33.1740584,33.7078203 31.0534794,35.8325215 28.4470322,35.8325215 Z M34.0798768,19.5848852 L18.3688035,2.48176371 C18.1189088,2.20970359 17.6789265,2.20952281 17.4287787,2.48136596 L1.71954947,19.5521613 C1.35889988,19.9440522 0.7374718,19.9795242 0.331515014,19.6313494 L0.331515014,19.6313494 C-0.0744417711,19.2831747 -0.111143112,18.6832612 0.24947032,18.2913703 L16.5092922,0.622252419 C17.2492494,-0.181850789 18.5506831,-0.181308419 19.2899533,0.623445661 L35.5510769,18.3253235 C35.9113649,18.7175399 35.874085,19.3174172 35.4678028,19.6652304 L35.4678028,19.6652304 C35.0615568,20.0130797 34.4401648,19.9770654 34.0798768,19.5848852 Z" fill="#FFFFFF"></path>
            <path d="M25.8817754,26.353657 L23.5660346,24.0379162 C25.5586488,20.6450867 24.48156,16.2828774 21.142585,14.2902633 C17.7497555,12.2976492 13.3875462,13.3747379 11.3949321,16.7137129 C9.40231802,20.052688 10.4255523,24.4687517 13.7645273,26.5152203 C14.8954704,27.1614735 16.1341225,27.5384546 17.4266289,27.5384546 C18.7191354,27.5384546 19.9577874,27.1614735 21.0887306,26.5152203 L23.4044713,28.830961 C24.0507246,29.5310687 25.1816677,29.5310687 25.8279209,28.8848154 C26.5280286,28.1847078 26.5818831,27.1076191 25.8817754,26.353657 C25.8817754,26.4075114 25.8817754,26.4075114 25.8817754,26.353657 L25.8817754,26.353657 Z M15.5955781,16.9829851 C14.8954705,17.4138206 14.3030717,18.0600738 13.979945,18.814036 C13.8722362,19.1371626 13.5491096,19.2987259 13.2259829,19.2987259 C12.7951475,19.2987259 12.4181664,18.9217448 12.4181664,18.4909093 C12.4181664,18.3832005 12.4181664,18.2754916 12.4720208,18.1677827 C12.9567108,17.090694 13.7645273,16.1751686 14.7877616,15.5827698 C15.1647426,15.367352 15.6494326,15.4750609 15.8648503,15.852042 C16.1341225,16.2828774 15.9725592,16.7675674 15.5955781,16.9829851 L15.5955781,16.9829851 Z" fill="#FEC43E"></path>
        </g>
    </g>
</svg>