<?xml version="1.0" encoding="UTF-8"?>
<svg width="72px" height="72px" viewBox="0 0 72 72" version="1.1" xmlns="http://www.w3.org/2000/svg" xmlns:xlink="http://www.w3.org/1999/xlink">
    <title>icon_已招商单元</title>
    <g id="icon_已招商单元" stroke="none" stroke-width="1" fill="none" fill-rule="evenodd">
        <g>
            <circle id="椭圆形" stroke-opacity="0.5" stroke="#FFFFFF" stroke-width="3" fill-opacity="0.2" fill="#55595A" cx="36" cy="36" r="34.5"></circle>
            <g id="区块-开发单元_地质对象jurassic" transform="translate(20.000000, 20.000000)" fill-rule="nonzero">
                <path d="M22.5,24.1 L16,30.5785714 L9.42142857,24 L16,17.4214286 L22.5,24.1 Z M30.1785714,32 L17.4,32 L23.8785714,25.5214286 L30.1785714,32 Z M32,17.4 L32,30.9785714 L25.3,24.1214286 L32,17.4 Z" id="形状" fill="#E6C27C"></path>
                <path d="M14.6,0 L8,6.57857143 L1.4,0 L14.6,0 Z M1.41871429,15.9999286 L7.99978571,9.41885714 L14.5808571,15.9999286 L7.99978571,22.581 L1.41871429,15.9999286 Z M6.57857143,8 L0,14.5785714 L0,1.4 L6.57857143,8 Z M16,1.4 L16,14.5785714 L9.42142857,8 L16,1.4 Z M14.6,32 L1.42142857,32 L8,25.4214286 L14.6,32 Z M0.260714286,31.7607143 L0,32 L0,31.5 L0.260714286,31.7607143 Z M6.57857143,24 L0,30.5785714 L0,17.4 L6.57857143,24 Z M30.6,16 L23.9,22.6785714 L17.4,16 L30.6,16 Z M0.239285714,15.7607143 L0,16 L0,15.5214286 L0.239285714,15.7607143 Z" id="形状" fill="#FFFFFF"></path>
                <polygon id="路径" fill="#CE6043" points="0.260714286 31.7607143 0.5 32 0 32"></polygon>
            </g>
        </g>
    </g>
</svg>