<?xml version="1.0" encoding="UTF-8"?>
<svg width="115px" height="56px" viewBox="0 0 115 56" version="1.1" xmlns="http://www.w3.org/2000/svg" xmlns:xlink="http://www.w3.org/1999/xlink">
    <title>中段_未选</title>
    <defs>
        <path d="M2.55511789,0.793811581 L40.1454659,0.0221516794 C40.8189523,0.00832625687 41.4541532,0.334464951 41.835393,0.889830867 L43.4098814,3.1834458 C43.6301292,3.50428876 43.7519876,3.88241856 43.7605211,4.27148983 L44.8491767,53.906936 C44.8571912,54.2717036 44.964822,54.6273335 45.1604301,54.9353223 C48.6607441,60.4466354 51.3340374,65.079419 53.1803099,68.8336731 C55.0053622,72.5447775 54.745963,79.9884475 52.4021122,91.164683 C52.2299937,91.9855138 51.5640154,92.6117578 50.7341638,92.733143 L34.4005238,95.1223188 C34.0253499,95.1771967 33.6735051,95.3375921 33.3860107,95.5848046 L12.9843756,113.127892 C12.6215565,113.439876 12.1589054,113.611437 11.6803961,113.611437 L2.59616552,113.611437 C1.49159602,113.611437 0.596165516,112.716006 0.596165516,111.611437 L0.596165516,2.79339031 C0.596165516,1.70481817 1.46677504,0.816153235 2.55511789,0.793811581 Z" id="path-1"></path>
        <linearGradient x1="23.5487506%" y1="48.8436485%" x2="71.662784%" y2="54.9942271%" id="linearGradient-3">
            <stop stop-color="#FFFFFF" stop-opacity="0.5" offset="0%"></stop>
            <stop stop-color="#FFFFFF" stop-opacity="0" offset="100%"></stop>
        </linearGradient>
    </defs>
    <g id="中段_未选" stroke="none" stroke-width="1" fill="none" fill-rule="evenodd">
        <g id="中段" transform="translate(57.500000, 28.000000) rotate(-90.000000) translate(-57.500000, -28.000000) translate(30.000000, -29.000000)">
            <path d="M40.1608587,0.771993703 C40.5817877,0.763352814 40.9787883,0.967189497 41.2170632,1.3142932 L41.2170632,1.3142932 L42.7915516,3.60790813 C42.9292065,3.80843498 43.005368,4.0447661 43.0107014,4.28793565 L43.0107014,4.28793565 L44.0993577,53.9234107 C44.1103774,54.4249574 44.2583698,54.913939 44.527326,55.3374158 C48.0098378,60.8206989 50.6703969,65.429466 52.5072916,69.164651 C54.2940387,72.7978646 53.9569428,80.0967105 51.6680761,91.0107642 C51.6142902,91.2672685 51.4833403,91.4933692 51.3010065,91.6648273 C51.1186681,91.8362897 50.8849435,91.9531069 50.6256139,91.9910399 L50.6256139,91.9910399 L34.2919739,94.3802157 C33.7761098,94.4556729 33.2923232,94.6762166 32.8970184,95.0161338 L32.8970184,95.0161338 L12.4953833,112.559222 C12.2686214,112.754211 11.9794644,112.861437 11.6803961,112.861437 L11.6803961,112.861437 L2.59616552,112.861437 C2.25098755,112.861437 1.93848755,112.721526 1.71228204,112.49532 C1.48607653,112.269115 1.34616552,111.956615 1.34616552,111.611437 L1.34616552,111.611437 L1.34616552,2.79339031 C1.34616552,2.45321152 1.48219825,2.14426822 1.70325778,1.91862419 C1.9243173,1.69298015 2.23040361,1.55063537 2.57051075,1.5436536 L2.57051075,1.5436536 Z" id="填充" stroke="#EBEDCE" stroke-width="1.5" fill-opacity="0.15" fill="#FFFFFF" opacity="0.8"></path>
            <mask id="mask-2" fill="white">
                <use xlink:href="#path-1"></use>
            </mask>
            <g id="矩形" opacity="0.8"></g>
            <path d="M-86,135.190143 L-13.1494136,61.4898325 M-86,143.339988 L-13.1494136,69.6396774 M-86,151.489832 L-13.1494136,77.7895223 M-77.8501551,151.489832 L-4.99956867,77.7895223 M-69.7003101,151.489832 L3.15027627,77.7895223 M-61.5504652,151.489832 L11.3001212,77.7895223 M-53.4006203,151.489832 L19.4499661,77.7895223 M-45.2507753,151.489832 L27.5998111,77.7895223 M-37.1009304,151.489832 L35.749656,77.7895223 M-28.9510855,151.489832 L43.8995009,77.7895223 M-20.8012406,151.489832 L52.0493458,77.7895223 M-12.6513956,151.489832 L60.1991908,77.7895223 M-4.50155069,151.489832 L68.3490357,77.7895223 M3.64829424,151.489832 L76.4988806,77.7895223 M11.7981392,151.489832 L84.6487256,77.7895223 M20.1987594,151.489832 L93.0493458,77.7895223 M28.3486044,151.489832 L101.199191,77.7895223 M36.4984493,151.489832 L109.349036,77.7895223 M44.6482942,151.489832 L117.498881,77.7895223 M52.7981392,151.489832 L125.648726,77.7895223 M61.1987594,151.489832 L134.049346,77.7895223 M69.3486044,151.489832 L142.199191,77.7895223 M77.4984493,151.489832 L150.349036,77.7895223 M85.6482942,151.489832 L158.498881,77.7895223 M93.7981392,151.489832 L166.648726,77.7895223" id="形状结合" stroke="url(#linearGradient-3)" stroke-width="1.5" opacity="0.300000012" mask="url(#mask-2)" transform="translate(40.324363, 106.489832) rotate(-270.000000) translate(-40.324363, -106.489832) "></path>
            <path d="M40.1608587,0.771993703 C40.5817877,0.763352814 40.9787883,0.967189497 41.2170632,1.3142932 L41.2170632,1.3142932 L42.7915516,3.60790813 C42.9292065,3.80843498 43.005368,4.0447661 43.0107014,4.28793565 L43.0107014,4.28793565 L44.0993577,53.9234107 C44.1103774,54.4249574 44.2583698,54.913939 44.527326,55.3374158 C48.0098378,60.8206989 50.6703969,65.429466 52.5072916,69.164651 C54.2940387,72.7978646 53.9569428,80.0967105 51.6680761,91.0107642 C51.6142902,91.2672685 51.4833403,91.4933692 51.3010065,91.6648273 C51.1186681,91.8362897 50.8849435,91.9531069 50.6256139,91.9910399 L50.6256139,91.9910399 L34.2919739,94.3802157 C33.7761098,94.4556729 33.2923232,94.6762166 32.8970184,95.0161338 L32.8970184,95.0161338 L12.4953833,112.559222 C12.2686214,112.754211 11.9794644,112.861437 11.6803961,112.861437 L11.6803961,112.861437 L2.59616552,112.861437 C2.25098755,112.861437 1.93848755,112.721526 1.71228204,112.49532 C1.48607653,112.269115 1.34616552,111.956615 1.34616552,111.611437 L1.34616552,111.611437 L1.34616552,2.79339031 C1.34616552,2.45321152 1.48219825,2.14426822 1.70325778,1.91862419 C1.9243173,1.69298015 2.23040361,1.55063537 2.57051075,1.5436536 L2.57051075,1.5436536 Z" id="边框1" stroke="#FFFFFF" stroke-width="1.5" opacity="0.300000012"></path>
        </g>
    </g>
</svg>