<?xml version="1.0" encoding="UTF-8"?>
<svg width="48px" height="48px" viewBox="0 0 48 48" version="1.1" xmlns="http://www.w3.org/2000/svg" xmlns:xlink="http://www.w3.org/1999/xlink">
    <title>icon_建筑信息</title>
    <defs>
        <filter x="-37.5%" y="-37.5%" width="175.0%" height="175.0%" filterUnits="objectBoundingBox" id="filter-1">
            <feOffset dx="0" dy="2" in="SourceAlpha" result="shadowOffsetOuter1"></feOffset>
            <feGaussianBlur stdDeviation="2" in="shadowOffsetOuter1" result="shadowBlurOuter1"></feGaussianBlur>
            <feColorMatrix values="0 0 0 0 0   0 0 0 0 0   0 0 0 0 0  0 0 0 0.5 0" type="matrix" in="shadowBlurOuter1" result="shadowMatrixOuter1"></feColorMatrix>
            <feMerge>
                <feMergeNode in="shadowMatrixOuter1"></feMergeNode>
                <feMergeNode in="SourceGraphic"></feMergeNode>
            </feMerge>
        </filter>
    </defs>
    <g id="icon_建筑信息" stroke="none" stroke-width="1" fill="none" fill-rule="evenodd">
        <g filter="url(#filter-1)" transform="translate(8.000000, 8.000000)">
            <path d="M9.59331336,10.1157685 L3.20608784,10.1157685 C2.64072169,10.1157685 2.17526544,10.5435336 2.11571735,11.0930657 L2.10928144,11.2125749 L2.10928144,30.3742515 C2.10928144,30.9396176 2.5370466,31.4050739 3.0865787,31.464622 L3.20608784,31.4710579 L9.59331336,31.4710579 C10.1586795,31.4710579 10.6241358,31.0432927 10.6836838,30.4937606 L10.6901198,30.3742515 L10.6901198,11.2125749 C10.6901198,10.6472087 10.2623546,10.1817525 9.7128225,10.1222044 L9.59331336,10.1157685 Z M8.496507,12.3093813 L8.496507,29.2774451 L4.3028942,29.2774451 L4.3028942,12.3093813 L8.496507,12.3093813 Z" id="形状" fill="#FFFFFF" fill-rule="nonzero"></path>
            <rect id="矩形" fill="#FFCF41" x="10.6901198" y="2.72854293" width="10.5808383" height="26.5489022"></rect>
            <path d="M22.3677645,0.534930127 L9.59331336,0.534930127 C9.02794723,0.534930127 8.562491,0.962695297 8.50294291,1.51222739 L8.496507,1.63173653 L8.496507,30.3742515 C8.496507,30.9396176 8.92427215,31.4050739 9.47380422,31.464622 L9.59331336,31.4710579 L22.3677645,31.4710579 C22.9331306,31.4710579 23.3985868,31.0432927 23.4581349,30.4937606 L23.4645708,30.3742515 L23.4645708,1.63173653 C23.4645708,1.06637038 23.0368057,0.600914132 22.4872736,0.541366038 L22.3677645,0.534930127 Z M21.2709581,2.72854293 L21.2709581,29.2774451 L10.6901198,29.2774451 L10.6901198,2.72854293 L21.2709581,2.72854293 Z" id="形状" fill="#FFFFFF" fill-rule="nonzero"></path>
            <path d="M28.75499,16.502994 L22.3677645,16.502994 C22.0768733,16.502994 21.7978963,16.6185501 21.5922052,16.8242412 C21.4158986,17.0005478 21.3058136,17.2306972 21.2779588,17.4760411 L21.2709581,17.5998004 L21.2709581,30.3742515 C21.2709581,30.9396176 21.6987233,31.4050739 22.2482553,31.464622 L22.3677645,31.4710579 L28.75499,31.4710579 C29.3203562,31.4710579 29.7858124,31.0432927 29.8453605,30.4937606 L29.8517964,30.3742515 L29.8517964,17.5998004 C29.8517964,17.3089093 29.7362404,17.0299323 29.5305493,16.8242412 C29.3542426,16.6479345 29.1240932,16.5378495 28.8787493,16.5099948 L28.75499,16.502994 Z M27.6581836,18.6966068 L27.6581836,29.2774451 L23.4645708,29.2774451 L23.4645708,18.6966068 L27.6581836,18.6966068 Z" id="形状" fill="#FFFFFF" fill-rule="nonzero"></path>
            <path d="M1.60928144,29.2774451 L30.3517964,29.2774451 C30.9575459,29.2774451 31.4486028,29.768502 31.4486028,30.3742515 C31.4486028,30.9800009 30.9575459,31.4710579 30.3517964,31.4710579 L1.60928144,31.4710579 C1.00353199,31.4710579 0.512475037,30.9800009 0.512475037,30.3742515 C0.512475037,29.768502 1.00353199,29.2774451 1.60928144,29.2774451 Z" id="路径" fill="#FFFFFF" fill-rule="nonzero"></path>
        </g>
    </g>
</svg>