<?xml version="1.0" encoding="UTF-8"?>
<svg width="48px" height="48px" viewBox="0 0 48 48" version="1.1" xmlns="http://www.w3.org/2000/svg" xmlns:xlink="http://www.w3.org/1999/xlink">
    <title>icon_招商楼层</title>
    <defs>
        <filter x="-40.0%" y="-42.9%" width="180.0%" height="185.7%" filterUnits="objectBoundingBox" id="filter-1">
            <feOffset dx="0" dy="2" in="SourceAlpha" result="shadowOffsetOuter1"></feOffset>
            <feGaussianBlur stdDeviation="2" in="shadowOffsetOuter1" result="shadowBlurOuter1"></feGaussianBlur>
            <feColorMatrix values="0 0 0 0 0   0 0 0 0 0   0 0 0 0 0  0 0 0 0.4 0" type="matrix" in="shadowBlurOuter1" result="shadowMatrixOuter1"></feColorMatrix>
            <feMerge>
                <feMergeNode in="shadowMatrixOuter1"></feMergeNode>
                <feMergeNode in="SourceGraphic"></feMergeNode>
            </feMerge>
        </filter>
    </defs>
    <g id="icon_招商楼层" stroke="none" stroke-width="1" fill="none" fill-rule="evenodd">
        <g transform="translate(8.500000, 9.500000)" id="楼层-(3)">
            <g filter="url(#filter-1)" transform="translate(0.754212, 0.663196)">
                <rect id="矩形" fill="#FFCF41" x="1.97401361" y="12.1898264" width="25.2174767" height="2.78275047"></rect>
                <rect id="矩形" fill="#FFCF41" x="1.97401361" y="22.3748947" width="25.2174767" height="2.78275047"></rect>
                <path d="M29.1873941,11.2302573 C29.1873941,10.6928986 28.7268009,10.2514968 28.2086336,10.2514968 L26.3470694,10.2514968 L26.3470694,6.70109103 L28.2086336,6.70109103 C28.7459923,6.70109103 29.1873941,6.24049785 29.1873941,5.72233052 L29.1873941,1.00125041 C29.1873941,0.4638917 28.7268009,0.0224899014 28.2086336,0.0224899014 L0.995253104,0.0224899014 C0.477085775,0.0224899014 0.0356839769,0.4638917 0.0356839769,1.00125041 L0.0356839769,5.72233052 C0.0356839769,6.25968923 0.457894393,6.70109103 0.995253104,6.70109103 L3.02953965,6.70109103 L3.02953965,10.2323054 L0.995253104,10.2323054 C0.477085775,10.2323054 0.0356839769,10.6737072 0.0356839769,11.2110659 L0.0356839769,15.9513374 C0.0356839769,16.4695047 0.457894393,16.9109065 0.995253104,16.9109065 L28.1894422,16.9109065 C28.7268009,16.9109065 29.1682027,16.4886961 29.1682027,15.9513374 L29.1682027,11.2302573 L29.1873941,11.2302573 Z M1.97401361,4.72437862 L1.97401361,1.98001092 L27.1914903,1.98001092 L27.1914903,4.72437862 L1.97401361,4.72437862 Z M24.3895484,6.70109103 L24.3895484,10.2323054 L4.96786929,10.2323054 L4.96786929,6.70109103 L24.3895484,6.70109103 Z M27.2106817,14.9725769 L1.97401361,14.9725769 L1.97401361,12.1898264 L27.1914903,12.1898264 L27.1914903,14.9725769 L27.2106817,14.9725769 Z" id="形状" fill="#FFFFFF" fill-rule="nonzero"></path>
                <path d="M29.1873941,21.4208814 C29.1873941,20.8835227 28.7459923,20.4421209 28.2086336,20.4421209 L26.3470694,20.4421209 L26.3470694,16.5270789 L24.4087398,16.5270789 L24.4087398,20.4421209 L4.96786929,20.4421209 L4.96786929,16.5270789 L3.02953965,16.5270789 L3.02953965,20.4421209 L0.995253104,20.4421209 C0.457894393,20.4421209 0.0356839769,20.8835227 0.0356839769,21.4208814 L0.0356839769,26.1419615 C0.0356839769,26.6601289 0.457894393,27.1015307 0.995253104,27.1015307 L28.1894422,27.1015307 C28.7268009,27.1015307 29.1682027,26.6793203 29.1682027,26.1419615 L29.1682027,21.4208814 L29.1873941,21.4208814 Z M27.2106817,25.163201 L1.97401361,25.163201 L1.97401361,22.3804506 L27.1914903,22.3804506 L27.1914903,25.163201 L27.2106817,25.163201 Z" id="形状" fill="#FFFFFF" fill-rule="nonzero"></path>
            </g>
        </g>
    </g>
</svg>