<?xml version="1.0" encoding="UTF-8"?>
<svg width="40px" height="40px" viewBox="0 0 40 40" version="1.1" xmlns="http://www.w3.org/2000/svg" xmlns:xlink="http://www.w3.org/1999/xlink">
    <title>icon_楼层</title>
    <defs>
        <filter x="-30.0%" y="-30.0%" width="160.0%" height="160.0%" filterUnits="objectBoundingBox" id="filter-1">
            <feOffset dx="0" dy="2" in="SourceAlpha" result="shadowOffsetOuter1"></feOffset>
            <feGaussianBlur stdDeviation="2" in="shadowOffsetOuter1" result="shadowBlurOuter1"></feGaussianBlur>
            <feColorMatrix values="0 0 0 0 0   0 0 0 0 0   0 0 0 0 0  0 0 0 0.5 0" type="matrix" in="shadowBlurOuter1" result="shadowMatrixOuter1"></feColorMatrix>
            <feMerge>
                <feMergeNode in="shadowMatrixOuter1"></feMergeNode>
                <feMergeNode in="SourceGraphic"></feMergeNode>
            </feMerge>
        </filter>
        <linearGradient x1="50%" y1="2.19346477%" x2="50%" y2="100%" id="linearGradient-2">
            <stop stop-color="#EFD74B" offset="0%"></stop>
            <stop stop-color="#ECF2A5" offset="100%"></stop>
        </linearGradient>
    </defs>
    <g id="icon_楼层" stroke="none" stroke-width="1" fill="none" fill-rule="evenodd">
        <g filter="url(#filter-1)">
            <path d="M20.2446388,0.625278095 L20.1324959,0.589228121 C19.9314733,0.507159273 19.7116967,0.513378862 19.408447,0.666308596 L19.2731836,0.74100249 L1.036,9.083 L0.938560336,9.14838623 L0.83808096,9.23304012 L0.750412262,9.32647202 L0.67745821,9.42627366 C0.636349083,9.49651772 0.606664786,9.57284877 0.582541994,9.68072976 C0.561632409,9.75609669 0.547838901,9.83321645 0.541300113,9.91226593 L0.536950301,10.0323096 L0.562497134,29.8395528 C0.555167759,29.9448635 0.565353199,30.0506606 0.59702243,30.1703032 C0.663558203,30.4609594 0.83333147,30.6357269 1.1357611,30.7541966 L1.25544794,30.7961001 L19.3429896,39.0764544 C19.598937,39.233513 19.8111765,39.2754054 20.0315436,39.2338891 C20.1543267,39.2171057 20.2875696,39.1809557 20.4373805,39.1205799 L38.937875,30.7042909 L38.95,30.701 C39.0386783,30.6553221 39.1173296,30.5941971 39.1834729,30.5172899 L39.245355,30.4351095 L39.2983516,30.3423739 C39.3328031,30.2779545 39.3574924,30.2090366 39.3716211,30.1459251 L39.382,30.07 L39.3810804,9.96393422 L39.3786058,9.92825225 C39.375247,9.74848381 39.3174057,9.57396819 39.2064767,9.41884326 C39.1350894,9.31440565 39.0469041,9.22289729 38.9644183,9.15753311 L38.8846655,9.10137309 L20.5055148,0.732906512 C20.4281399,0.693948419 20.3481596,0.660481528 20.2446388,0.625278095 Z M2.40716517,29.320188 L2.39508557,21.5443875 L19.3415081,29.2971951 C19.5974555,29.4542538 19.809695,29.4961462 20.0335657,29.4541635 C20.1543562,29.4385215 20.2860922,29.4029711 20.4356677,29.3421455 L37.5464429,21.5581487 L37.5414815,29.3400241 L19.9430777,37.3455365 L2.40716517,29.320188 Z M2.39225441,19.5379872 L2.38198575,11.3504277 L19.3415081,19.109047 C19.5974555,19.2661056 19.809695,19.307998 20.0335657,19.2660153 C20.1543562,19.2503734 20.2860922,19.214823 20.4356677,19.1539973 L20.5914451,19.0845477 L37.546413,11.3700142 L37.5412798,19.5608565 L19.9431286,27.5662541 L2.39225441,19.5379872 Z M3.383,12.908 L3.391,18.895 L19.943,26.467 L36.541,18.916 L36.545,12.924 L21.0160345,19.9898603 C20.7768409,20.1054257 20.5478706,20.1849805 20.3418919,20.2277576 L20.1919183,20.2529326 C19.8032842,20.3274376 19.398751,20.2664915 19.0285117,20.0783329 L18.8720838,19.9899289 L3.383,12.908 Z M19.605,2.594 L19.7893331,2.41062033 L36.3108077,9.9276981 L19.9431828,17.3781424 L3.61904056,9.91010321 L19.605,2.594 Z" id="形状" fill="#FFFFFF" fill-rule="nonzero"></path>
            <path d="M37.7837927,19.8935457 L19.9711111,27.8760465 L2.16047162,19.8935457 L2.16047162,10.9063022 L19.08,18.5352083 C19.4711111,18.7752083 19.8118518,18.8166898 20.0977778,18.761875 C20.3037037,18.7352083 20.5348148,18.6670602 20.7985185,18.5396528 L37.7837927,10.9063022 L37.7837927,19.8935457 Z" id="路径" fill="url(#linearGradient-2)"></path>
        </g>
    </g>
</svg>