<?xml version="1.0" encoding="UTF-8"?>
<svg width="142px" height="71px" viewBox="0 0 142 71" version="1.1" xmlns="http://www.w3.org/2000/svg" xmlns:xlink="http://www.w3.org/1999/xlink">
    <title>北段_未选</title>
    <defs>
        <path d="M1.50677578,38.4177238 L59.0012632,1.07492511 C59.9188501,0.478950391 61.1450253,0.730943989 61.7532111,1.64048316 L70.2620687,14.3654413 C70.5027086,14.7253172 70.6200812,15.1535589 70.5965552,15.5858376 L67.8620173,65.8315808 C67.826758,66.4794537 67.4794041,67.0699636 66.9302753,67.4155646 L42.0712034,83.0609312 C41.4894721,83.4270511 41.1365061,84.0662471 41.1365061,84.7536008 L41.1365061,140 C41.1365061,141.104569 40.2410756,142 39.1365061,142 L2.59616552,142 C1.49159602,142 0.596165516,141.104569 0.596165516,140 L0.596165516,40.0949924 C0.596165516,39.4177926 0.938852787,38.7865911 1.50677578,38.4177238 Z" id="path-1"></path>
        <linearGradient x1="23.5487506%" y1="48.8436485%" x2="71.662784%" y2="54.9942271%" id="linearGradient-3">
            <stop stop-color="#FFFFFF" stop-opacity="0.5" offset="0%"></stop>
            <stop stop-color="#FFFFFF" stop-opacity="0" offset="100%"></stop>
        </linearGradient>
    </defs>
    <g id="北段_未选" stroke="none" stroke-width="1" fill="none" fill-rule="evenodd">
        <g id="北段" transform="translate(71.000000, 35.500000) rotate(-90.000000) translate(-71.000000, -35.500000) translate(35.500000, -35.500000)">
            <path d="M59.4097844,1.70390084 C59.6965303,1.51765874 60.0314931,1.46391169 60.342284,1.52778291 C60.6530748,1.59165414 60.9396938,1.77314363 61.1297518,2.05737462 L61.1297518,2.05737462 L69.6386094,14.7823328 C69.7890093,15.0072552 69.8623672,15.2749063 69.8476634,15.5450804 L69.8476634,15.5450804 L67.1131256,65.7908236 C67.0910885,66.1957442 66.8739923,66.5648129 66.5307868,66.7808135 L66.5307868,66.7808135 L41.6717149,82.4261801 C40.8718343,82.9295949 40.3865061,83.8084895 40.3865061,84.7536008 L40.3865061,84.7536008 L40.3865061,140 C40.3865061,140.345178 40.2465951,140.657678 40.0203895,140.883883 C39.794184,141.110089 39.481684,141.25 39.1365061,141.25 L39.1365061,141.25 L2.59616552,141.25 C2.25098755,141.25 1.93848755,141.110089 1.71228204,140.883883 C1.48607653,140.657678 1.34616552,140.345178 1.34616552,140 L1.34616552,140 L1.34616552,40.0949924 C1.34616552,39.6717425 1.56034506,39.2772416 1.91529693,39.0466995 L1.91529693,39.0466995 Z" id="矩形" stroke="#EBEDCE" stroke-width="1.5" fill-opacity="0.15" fill="#FFFFFF" opacity="0.8"></path>
            <mask id="mask-2" fill="white">
                <use xlink:href="#path-1"></use>
            </mask>
            <g id="矩形" opacity="0.804119731"></g>
            <path d="M-86,116.600383 L-13.1494136,42.9000732 M-86,124.750228 L-13.1494136,51.0499181 M-86,132.900073 L-13.1494136,59.1997631 M-77.8501551,132.900073 L-4.99956867,59.1997631 M-69.7003101,132.900073 L3.15027627,59.1997631 M-61.5504652,132.900073 L11.3001212,59.1997631 M-53.4006203,132.900073 L19.4499661,59.1997631 M-45.2507753,132.900073 L27.5998111,59.1997631 M-37.1009304,132.900073 L35.749656,59.1997631 M-28.9510855,132.900073 L43.8995009,59.1997631 M-20.8012406,132.900073 L52.0493458,59.1997631 M-12.6513956,132.900073 L60.1991908,59.1997631 M-4.50155069,132.900073 L68.3490357,59.1997631 M3.64829424,132.900073 L76.4988806,59.1997631 M11.7981392,132.900073 L84.6487256,59.1997631 M20.1987594,132.900073 L93.0493458,59.1997631 M28.3486044,132.900073 L101.199191,59.1997631 M36.4984493,132.900073 L109.349036,59.1997631 M44.6482942,132.900073 L117.498881,59.1997631 M52.7981392,132.900073 L125.648726,59.1997631 M61.1987594,132.900073 L134.049346,59.1997631 M69.3486044,132.900073 L142.199191,59.1997631 M77.4984493,132.900073 L150.349036,59.1997631 M85.6482942,132.900073 L158.498881,59.1997631 M93.7981392,132.900073 L166.648726,59.1997631" id="形状结合" stroke="url(#linearGradient-3)" stroke-width="1.5" opacity="0.800000012" mask="url(#mask-2)" transform="translate(40.324363, 87.900073) rotate(-270.000000) translate(-40.324363, -87.900073) "></path>
            <path d="M59.4097844,1.70390084 C59.6965303,1.51765874 60.0314931,1.46391169 60.342284,1.52778291 C60.6530748,1.59165414 60.9396938,1.77314363 61.1297518,2.05737462 L61.1297518,2.05737462 L69.6386094,14.7823328 C69.7890093,15.0072552 69.8623672,15.2749063 69.8476634,15.5450804 L69.8476634,15.5450804 L67.1131256,65.7908236 C67.0910885,66.1957442 66.8739923,66.5648129 66.5307868,66.7808135 L66.5307868,66.7808135 L41.6717149,82.4261801 C40.8718343,82.9295949 40.3865061,83.8084895 40.3865061,84.7536008 L40.3865061,84.7536008 L40.3865061,140 C40.3865061,140.345178 40.2465951,140.657678 40.0203895,140.883883 C39.794184,141.110089 39.481684,141.25 39.1365061,141.25 L39.1365061,141.25 L2.59616552,141.25 C2.25098755,141.25 1.93848755,141.110089 1.71228204,140.883883 C1.48607653,140.657678 1.34616552,140.345178 1.34616552,140 L1.34616552,140 L1.34616552,40.0949924 C1.34616552,39.6717425 1.56034506,39.2772416 1.91529693,39.0466995 L1.91529693,39.0466995 Z" id="边框-选中" stroke="#FFFFFF" stroke-width="1.5" opacity="0.300000012"></path>
        </g>
    </g>
</svg>