<?xml version="1.0" encoding="UTF-8"?>
<svg width="126px" height="80px" viewBox="0 0 126 80" version="1.1" xmlns="http://www.w3.org/2000/svg" xmlns:xlink="http://www.w3.org/1999/xlink">
    <title>南段_未选</title>
    <defs>
        <path d="M2.61224704,21.3160209 L12.7238367,21.3160209 C13.2186127,21.3160209 13.6958267,21.1326217 14.0632583,20.8012649 L33.9320286,2.88322604 C34.2276607,2.61661936 34.5961297,2.4443028 34.990268,2.38833457 L50.0815992,0.245342788 C51.0719571,0.10473248 52.0139111,0.717412084 52.2868615,1.6797417 C55.5342654,13.1289749 57.8192905,21.7292212 59.1419367,27.4804808 C60.3999673,32.9507729 61.9116886,38.6493068 63.6771004,44.5760827 C63.9815546,45.5981773 65.0344355,46.2015823 66.0702204,45.9475755 L77.0725937,43.2494496 C78.1453764,42.9863697 79.228307,43.6427636 79.4913869,44.7155463 C79.5508344,44.9579604 79.5643807,45.2093602 79.5313261,45.4567586 L75.4808235,75.7728777 C75.4391692,76.0846404 75.3245713,76.3821834 75.1463366,76.6413425 L73.488096,79.0524788 C73.2587672,79.3859303 73.1359933,79.7811083 73.1359933,80.1858077 L73.1359933,99.1638123 C73.1359933,99.5955135 72.99631,100.015627 72.7378141,100.361381 L55.2304215,123.778587 C54.684189,124.509206 53.7127862,124.777627 52.8689204,124.431123 L32.7508052,116.170326 C32.6007831,116.108725 32.4438252,116.065599 32.2833892,116.0419 L3.01212155,111.71801 C2.03708813,111.57398 1.3123432,110.741079 1.30444997,109.755497 L0.612311173,23.3320377 C0.6034653,22.2275037 1.49169609,21.3249309 2.59623017,21.316085 C2.60156902,21.3160423 2.60690802,21.3160209 2.61224704,21.3160209 Z" id="path-1"></path>
        <linearGradient x1="23.5487506%" y1="48.7775909%" x2="71.662784%" y2="55.2795265%" id="linearGradient-3">
            <stop stop-color="#FFFFFF" stop-opacity="0.5" offset="0%"></stop>
            <stop stop-color="#FFFFFF" stop-opacity="0" offset="100%"></stop>
        </linearGradient>
    </defs>
    <g id="南段_未选" stroke="none" stroke-width="1" fill="none" fill-rule="evenodd">
        <g transform="translate(63.000000, 40.000000) rotate(-90.000000) translate(-63.000000, -40.000000) translate(23.000000, -23.000000)" id="南段">
            <path d="M50.1870263,0.987895894 C50.4965171,0.943954609 50.7984448,1.0177165 51.044324,1.17764705 C51.2901987,1.33757472 51.480027,1.58366847 51.5653236,1.88439514 C53.9631129,10.3381783 55.8357533,17.2371009 57.1827135,22.5796561 L57.1827135,22.5796561 L57.5270457,23.9577414 C57.858419,25.2967225 58.1530819,26.5269987 58.4110163,27.6485742 C59.6724314,33.1335829 61.188149,38.8474668 62.9583112,44.7901904 C63.1676234,45.4928804 63.6342074,46.0516457 64.2264887,46.3910811 C64.8187701,46.7305165 65.5367489,46.850622 66.248851,46.6759923 L66.248851,46.6759923 L77.2512243,43.9778664 C77.5864689,43.895654 77.9232991,43.9571093 78.1968713,44.1229289 C78.4704434,44.2887484 78.6807576,44.5589323 78.76297,44.8941769 L78.76297,44.8941769 L74.7374294,75.6735537 C74.7113955,75.8684053 74.6397718,76.0543698 74.5283751,76.2163442 L74.5283751,76.2163442 L72.8701345,78.6274804 C72.5548075,79.0859763 72.3859933,79.629346 72.3859933,80.1858077 L72.3859933,80.1858077 L72.3859933,99.1638123 C72.3859933,99.4336256 72.2986913,99.6961963 72.1371313,99.9122926 L72.1371313,99.9122926 L54.6297387,123.329499 C54.459041,123.557818 54.2219105,123.713917 53.9615274,123.785867 C53.7011443,123.857817 53.4175086,123.845616 53.1538005,123.737334 L53.1538005,123.737334 L32.9516723,115.44204 L3.12172065,110.976061 C2.81702271,110.931052 2.55143235,110.778407 2.36139981,110.560015 C2.17136727,110.341623 2.05689255,110.057485 2.05442592,109.749491 L2.05442592,109.749491 L1.36228712,23.3260314 C1.35952279,22.9808645 1.49692668,22.6672541 1.72131338,22.4392443 C1.94570008,22.2112345 2.25706959,22.0688253 2.59623492,22.066085 L2.59623492,22.066085 L12.7238367,22.0660209 C13.4041537,22.0660209 14.060323,21.8138471 14.5655414,21.3582314 L14.5655414,21.3582314 L34.4343117,3.44019255 C34.6190818,3.27356337 34.8493749,3.16586552 35.0957114,3.13088538 L35.0957114,3.13088538 Z" id="矩形" stroke="#EBEDCE" stroke-width="1.5" fill-opacity="0.15" fill="#FFFFFF" opacity="0.8"></path>
            <mask id="mask-2" fill="white">
                <use xlink:href="#path-1"></use>
            </mask>
            <g id="矩形" opacity="0.8"></g>
            <path d="M-80,134.987651 L-3.1494136,57.2873411 M-80,143.137496 L-3.1494136,65.437186 M-80,151.287341 L-3.1494136,73.587031 M-71.8501551,151.287341 L5.00043133,73.587031 M-63.7003101,151.287341 L13.1502763,73.587031 M-55.5504652,151.287341 L21.3001212,73.587031 M-47.4006203,151.287341 L29.4499661,73.587031 M-39.2507753,151.287341 L37.5998111,73.587031 M-31.1009304,151.287341 L45.749656,73.587031 M-22.9510855,151.287341 L53.8995009,73.587031 M-14.8012406,151.287341 L62.0493458,73.587031 M-6.65139562,151.287341 L70.1991908,73.587031 M1.49844931,151.287341 L78.3490357,73.587031 M9.64829424,151.287341 L86.4988806,73.587031 M17.7981392,151.287341 L94.6487256,73.587031 M26.1987594,151.287341 L103.049346,73.587031 M34.3486044,151.287341 L111.199191,73.587031 M42.4984493,151.287341 L119.349036,73.587031 M50.6482942,151.287341 L127.498881,73.587031 M58.7981392,151.287341 L135.648726,73.587031 M67.1987594,151.287341 L144.049346,73.587031 M75.3486044,151.287341 L152.199191,73.587031 M83.4984493,151.287341 L160.349036,73.587031 M91.6482942,151.287341 L168.498881,73.587031 M99.7981392,151.287341 L176.648726,73.587031" id="形状结合" stroke="url(#linearGradient-3)" stroke-width="1.5" opacity="0.300000012" mask="url(#mask-2)" transform="translate(48.324363, 104.287341) rotate(-270.000000) translate(-48.324363, -104.287341) "></path>
            <path d="M50.1870263,0.987895894 C50.4965171,0.943954609 50.7984448,1.0177165 51.044324,1.17764705 C51.2901987,1.33757472 51.480027,1.58366847 51.5653236,1.88439514 C53.9631129,10.3381783 55.8357533,17.2371009 57.1827135,22.5796561 L57.1827135,22.5796561 L57.5270457,23.9577414 C57.858419,25.2967225 58.1530819,26.5269987 58.4110163,27.6485742 C59.6724314,33.1335829 61.188149,38.8474668 62.9583112,44.7901904 C63.1676234,45.4928804 63.6342074,46.0516457 64.2264887,46.3910811 C64.8187701,46.7305165 65.5367489,46.850622 66.248851,46.6759923 L66.248851,46.6759923 L77.2512243,43.9778664 C77.5864689,43.895654 77.9232991,43.9571093 78.1968713,44.1229289 C78.4704434,44.2887484 78.6807576,44.5589323 78.76297,44.8941769 L78.76297,44.8941769 L74.7374294,75.6735537 C74.7113955,75.8684053 74.6397718,76.0543698 74.5283751,76.2163442 L74.5283751,76.2163442 L72.8701345,78.6274804 C72.5548075,79.0859763 72.3859933,79.629346 72.3859933,80.1858077 L72.3859933,80.1858077 L72.3859933,99.1638123 C72.3859933,99.4336256 72.2986913,99.6961963 72.1371313,99.9122926 L72.1371313,99.9122926 L54.6297387,123.329499 C54.459041,123.557818 54.2219105,123.713917 53.9615274,123.785867 C53.7011443,123.857817 53.4175086,123.845616 53.1538005,123.737334 L53.1538005,123.737334 L32.9516723,115.44204 L3.12172065,110.976061 C2.81702271,110.931052 2.55143235,110.778407 2.36139981,110.560015 C2.17136727,110.341623 2.05689255,110.057485 2.05442592,109.749491 L2.05442592,109.749491 L1.36228712,23.3260314 C1.35952279,22.9808645 1.49692668,22.6672541 1.72131338,22.4392443 C1.94570008,22.2112345 2.25706959,22.0688253 2.59623492,22.066085 L2.59623492,22.066085 L12.7238367,22.0660209 C13.4041537,22.0660209 14.060323,21.8138471 14.5655414,21.3582314 L14.5655414,21.3582314 L34.4343117,3.44019255 C34.6190818,3.27356337 34.8493749,3.16586552 35.0957114,3.13088538 L35.0957114,3.13088538 Z" id="边框" stroke="#FFFFFF" stroke-width="1.5" opacity="0.300000012"></path>
        </g>
    </g>
</svg>