<?xml version="1.0" encoding="UTF-8"?>
<svg width="48px" height="48px" viewBox="0 0 48 48" version="1.1" xmlns="http://www.w3.org/2000/svg" xmlns:xlink="http://www.w3.org/1999/xlink">
    <title>icon_单元信息</title>
    <g id="icon_单元信息" stroke="none" stroke-width="1" fill="none" fill-rule="evenodd">
        <g transform="translate(4.000000, 6.000000)">
            <path d="M31.6416105,7.43458775 C32.2057786,7.43458775 32.662267,6.97808209 32.662267,6.41397305 L32.662267,1.02065067 C32.662267,0.456505697 32.2057786,4.51194637e-13 31.6416105,4.51194637e-13 L26.2470249,4.51194637e-13 C25.6838631,4.51194637e-13 25.2264043,0.456505662 25.2264043,1.02065067 L25.2264043,2.69712839 L21.9131342,2.69712839 C21.8099832,2.681279 21.7049272,2.681279 21.6018121,2.69712839 L7.43593461,2.69712839 L7.43593461,1.02065067 C7.43593461,0.456505697 6.97840387,4.51194637e-13 6.41524215,4.51194637e-13 L1.02069246,4.51194637e-13 C0.456524347,4.51194637e-13 -1.88293825e-13,0.456505662 -1.88293825e-13,1.02065067 L-1.88293825e-13,6.41397302 C-1.88293825e-13,6.97811798 0.456524382,7.43458772 1.02069246,7.43458772 L2.69727481,7.43458772 L2.69727481,25.2263052 L1.02069246,25.2263052 C0.456524347,25.2263052 -1.88293825e-13,25.6827749 -1.88293825e-13,26.2469199 L-1.88293825e-13,31.6402422 C-1.88293825e-13,32.2043872 0.456524382,32.6608569 1.02069246,32.6608569 L6.41524215,32.6608569 C6.9784039,32.6608569 7.43593461,32.2043872 7.43593461,31.6402422 L7.43593461,29.9637285 L25.2263683,29.9637285 L25.2263683,31.6402422 C25.2263683,32.2043872 25.6838631,32.6608569 26.2469889,32.6608569 L31.6415746,32.6608569 C32.2057427,32.6608569 32.662267,32.2043872 32.662267,31.6402422 L32.662267,26.2469558 C32.662267,25.6828109 32.2057426,25.2263411 31.6415746,25.2263411 L29.9649922,25.2263411 L29.9649922,10.9095943 C29.9667533,10.8750203 29.9667533,10.8403745 29.9649922,10.8058006 L29.9649922,7.43458775 L31.6416105,7.43458775 Z M27.2677533,2.04130133 L30.6208821,2.04130133 L30.6208821,5.39332238 L27.2677533,5.39332238 L27.2677533,2.04130133 Z M4.73865977,14.6091879 C4.79864553,14.5704809 4.85557628,14.5250891 4.90812223,14.4725453 L14.6426007,4.73842972 L19.2813801,4.73842972 L4.73865977,19.2805901 L4.73865977,14.6091879 Z M2.04138492,2.04130133 L5.39451373,2.04130133 L5.39451373,3.67892827 C5.39401055,3.69183062 5.39354333,3.70473296 5.39354333,3.71777906 C5.39354333,3.73082515 5.39404651,3.7437275 5.39451373,3.75662984 L5.39451373,5.39332235 L2.04138492,5.39332235 L2.04138492,2.04130133 Z M6.41524215,7.43458775 C6.9784039,7.43458775 7.43593461,6.97808209 7.43593461,6.41397305 L7.43593461,4.73842976 L11.755952,4.73842976 L4.73865977,11.7554344 L4.73865977,7.43458775 L6.41524215,7.43458775 Z M4.73865977,22.1670846 L22.1680647,4.73842972 L25.2264043,4.73842972 L25.2264043,5.98898642 L5.98829731,25.2263052 L4.73865977,25.2263052 L4.73865977,22.1670846 Z M2.04138492,30.6196275 L2.04138492,27.2676065 L5.39451373,27.2676065 L5.39451373,28.904263 C5.39401055,28.9171654 5.39354333,28.9301037 5.39354333,28.9431138 C5.39354333,28.956124 5.39404651,28.9690623 5.39451373,28.9819646 L5.39451373,30.6195915 L2.04138492,30.6195916 L2.04138492,30.6196275 Z M27.9236073,17.9045321 L18.1498811,27.6778219 C18.0758064,27.7518935 18.0156049,27.8344829 17.9690612,27.9224632 L13.3235608,27.9224632 L27.9236073,13.323015 L27.9236073,17.9045321 Z M30.6208821,30.6196275 L27.2677533,30.6196275 L27.2677533,27.2676065 L30.6208821,27.2676065 L30.6208821,30.6196275 Z M26.2470249,25.2263052 C25.6838631,25.2263052 25.2264043,25.6827749 25.2264043,26.2469199 L25.2264043,27.9224273 L20.7919144,27.9224273 L27.9236432,20.7910266 L27.9236432,25.2262692 L26.2470249,25.2262692 L26.2470249,25.2263052 Z M27.9236073,10.4364845 L10.4369121,27.9224632 L7.43593461,27.9224632 L7.43593461,26.6652936 L26.6674284,7.43462368 L27.9236073,7.43462368 L27.9236073,10.4364845 Z" id="形状" fill="#FFFFFF" fill-rule="nonzero"></path>
            <circle id="椭圆形" fill="#FFCF41" fill-rule="nonzero" cx="29.0954481" cy="25.4961178" r="10"></circle>
            <path d="M29.0954481,19.4961178 L35.0954481,25.4961178 L31.0954481,25.4961178 L31.0954481,32.4961178 L27.0954481,32.4961178 L27.0954481,25.4961178 L23.0954481,25.4961178 L29.0954481,19.4961178 Z" id="形状结合" fill="#FFFFFF"></path>
        </g>
    </g>
</svg>