<?xml version="1.0" encoding="UTF-8"?>
<svg width="48px" height="48px" viewBox="0 0 48 48" version="1.1" xmlns="http://www.w3.org/2000/svg" xmlns:xlink="http://www.w3.org/1999/xlink">
    <title>icon_权属信息</title>
    <g id="icon_权属信息" stroke="none" stroke-width="1" fill="none" fill-rule="evenodd">
        <g transform="translate(2.000000, 6.000000)">
            <g id="编组-19" stroke="#FFFFFF" stroke-width="3">
                <rect id="矩形-3" x="1.5" y="1.5" width="30" height="32" rx="1"></rect>
                <rect id="矩形" x="10" y="11" width="13" height="1" rx="0.5"></rect>
                <rect id="矩形" x="10" y="19" width="8" height="1" rx="0.5"></rect>
            </g>
            <g id="印章" transform="translate(19.500000, 10.500000)" fill="#FFCF41" fill-rule="nonzero">
                <path d="M21.8160136,16.4766088 L14.9403748,16.4766088 C14.6405451,16.4766088 14.3986371,16.2367512 14.3986371,15.9394628 L14.3986371,14.2841074 C14.3986371,14.0645195 14.5383305,13.8719577 14.746167,13.7908791 C17.3901193,12.7334786 19.2606474,10.1761234 19.2708688,7.17959227 C19.2810903,3.33173551 16.0374787,0.0581857289 12.1601363,0.000755030952 C8.12606474,-0.0566756669 4.83816014,3.16957824 4.83816014,7.15594433 C4.83816014,10.1254492 6.66439523,12.6625348 9.26064736,13.7469615 C9.46507666,13.8314184 9.60136286,14.0206019 9.60136286,14.2401898 L9.60136286,15.9394628 C9.60136286,16.2367512 9.35945486,16.4766088 9.05962521,16.4766088 L2.18057922,16.4766088 C0.974446337,16.4766088 0,17.4461741 0,18.6387056 L0,23.6994542 C0,23.9967425 0.241908007,24.2366001 0.541737649,24.2366001 L23.4548552,24.2366001 C23.7546848,24.2366001 23.996688,23.9967425 23.996688,23.6994542 L23.996688,18.6387056 C24,17.4427958 23.0221465,16.4766088 21.8160136,16.4766088 Z M23.4582624,22.6183152 L0.541737649,22.6183152 C0.241908007,22.6183152 0,22.8581728 0,23.1554611 L0,24.4628541 C0,24.7601424 0.241908007,25 0.541737649,25 L23.4582624,25 C23.758092,25 24,24.7601424 24,24.4628541 L24,23.1554611 C24,22.8581728 23.758092,22.6183152 23.4582624,22.6183152 Z" id="形状"></path>
            </g>
        </g>
    </g>
</svg>