<?xml version="1.0" encoding="UTF-8"?>
<svg width="33px" height="31px" viewBox="0 0 33 31" version="1.1" xmlns="http://www.w3.org/2000/svg" xmlns:xlink="http://www.w3.org/1999/xlink">
    <title>weather</title>
    <g id="2222" stroke="none" stroke-width="1" fill="none" fill-rule="evenodd" stroke-linecap="round" stroke-linejoin="round">
        <g id="2功能布局-01用地功能布局" transform="translate(-2484.000000, -49.000000)" stroke="#FFFFFF" stroke-width="2">
            <g id="top-right" transform="translate(2173.000000, 50.000000)">
                <g id="编组-26" transform="translate(309.791667, 0.000000)">
                    <g id="weather" transform="translate(2.708333, 0.000000)">
                        <path d="M12.4060682,9.91093508 C11.0892472,8.73537073 9.35202649,8.02083333 7.44791667,8.02083333 C7.05652005,8.02083333 6.67217487,8.05102417 6.29708291,8.10920407 C2.73015741,8.66246408 1.37667655e-13,11.7467758 1.37667655e-13,15.46875 C1.37667655e-13,18.2384119 1.51180055,20.6549739 3.75521208,21.9382464" id="路径"></path>
                        <path d="M27.2899939,19.3764705 C28.8585558,17.3444433 29.7916667,14.7968165 29.7916667,12.03125 C29.7916667,5.3865741 24.4050926,3.55271368e-15 17.7604167,3.55271368e-15 C12.4763856,3.55271368e-15 7.98796206,3.40640092 6.3713216,8.14302727" id="路径"></path>
                        <line x1="14.8958333" y1="21.7708333" x2="14.8958333" y2="28.6458333" id="路径-5"></line>
                        <line x1="9.16666667" y1="18.3333333" x2="9.16666667" y2="25.2083333" id="路径-5备份"></line>
                        <line x1="21.7708333" y1="18.3333333" x2="21.7708333" y2="25.2083333" id="路径-5备份-2"></line>
                    </g>
                </g>
            </g>
        </g>
    </g>
</svg>